<?xml version="1.0" encoding="UTF-8"?><svg id="Layer_1" xmlns="http://www.w3.org/2000/svg" viewBox="0 0 200 86"><defs><style>.cls-1{letter-spacing:-.02em;}.cls-2{fill:none;stroke:#fff;stroke-miterlimit:10;stroke-width:3px;}.cls-3{letter-spacing:0em;}.cls-4{fill:#ef6232;}.cls-5,.cls-6{fill:#fff;}.cls-7{fill:#1cb8bc;}.cls-8{letter-spacing:-.02em;}.cls-9{letter-spacing:-.07em;}.cls-6{font-family:Arial-BoldMT, Arial;font-size:33px;font-weight:700;}</style></defs><rect class="cls-7" width="200" height="43"/><rect class="cls-4" y="43" width="200" height="43"/><text class="cls-6" transform="translate(19.93 34.97)"><tspan x="0" y="0">INTE</tspan><tspan class="cls-8" x="75.17" y="0">R</tspan><tspan class="cls-9" x="98.4" y="0">V</tspan><tspan class="cls-3" x="117.96" y="0">A</tspan><tspan class="cls-1" x="141.8" y="0">L</tspan></text><g><line class="cls-2" x1="0" y1="43" x2="189.63" y2="43"/><polygon class="cls-5" points="187.32 46.4 200 43 187.32 39.6 187.32 46.4"/></g><g><line class="cls-2" x1="0" y1="52" x2="170.54" y2="52"/><polygon class="cls-5" points="168.22 55.4 180.9 52 168.22 48.6 168.22 55.4"/></g><g><line class="cls-2" x1="0" y1="62" x2="146.74" y2="62"/><polygon class="cls-5" points="144.42 65.4 157.11 62 144.42 58.6 144.42 65.4"/></g><g><line class="cls-2" x1="0" y1="72" x2="124.78" y2="72"/><polygon class="cls-5" points="122.46 75.4 135.15 72 122.46 68.6 122.46 75.4"/></g><g><line class="cls-2" x1="0" y1="81" x2="97.75" y2="81"/><polygon class="cls-5" points="95.43 84.4 108.12 81 95.43 77.6 95.43 84.4"/></g></svg>